# xmcd
#
# Track frame offsets:
#       150
#       12692
#       28172
#       46872
#       65717
#       79542
#       95950
#       107602
#       120927
#       136080
#
# Disc length: 1978 seconds
#
# Revision: 0
# Processed by: cddbd v1.5.1PL2 Copyright (c) Steve Scherf et al.
# Submitted via: CD-DA_X-Tractor v0.24
#
DISCID=8007b80a
DTITLE=Souleros - Souleros
DYEAR=2000
DGENRE=Rock
TTITLE0=Bag of Bones
TTITLE1=Hey, Rita
TTITLE2=Your Heartaches Are Over
TTITLE3=I Almost Loved A Woman
TTITLE4=Long Way From Texas
TTITLE5=Say The Word
TTITLE6=I'll Shoot You Dead
TTITLE7=You Put A Spell On Me
TTITLE8=She Rolls Me
TTITLE9=Home Brew
EXTD=
EXTT0=
EXTT1=
EXTT2=
EXTT3=
EXTT4=
EXTT5=
EXTT6=
EXTT7=
EXTT8=
EXTT9=
PLAYORDER=
